<svg xmlns="http://www.w3.org/2000/svg" viewBox="0 0 300 50" width="165" height="28"><path class="st0" fill="#406EB2" d="M24.5 11.8h-5.7c-1.7 0-3-1.4-3-3V3.1c0-1.7 1.4-3 3-3h5.7c1.7 0 3 1.4 3 3v5.7c0 1.6-1.4 3-3 3"/><path class="st1" fill="#632678" d="M9.8 24.5H3.4C1.5 24.5 0 22.9 0 21v-6.4c0-1.9 1.5-3.4 3.4-3.4h6.4c1.9 0 3.4 1.5 3.4 3.4V21c0 1.9-1.5 3.5-3.4 3.5"/><path class="st2" fill="#972880" d="M9.2 37.7H5.3c-1.2 0-2.1-.9-2.1-2.1v-3.9c0-1.2.9-2.1 2.1-2.1h3.9c1.2 0 2.1.9 2.1 2.1v3.9c0 1.2-.9 2.1-2.1 2.1"/><path class="st3" fill="#B92F7D" d="M19.6 50H15c-1.4 0-2.5-1.1-2.5-2.5v-4.6c0-1.4 1.1-2.5 2.5-2.5h4.6c1.4 0 2.5 1.1 2.5 2.5v4.6c0 1.4-1.1 2.5-2.5 2.5m16.9-35.9h-3.2c-.9 0-1.7-.8-1.7-1.7V9.2c0-.9.8-1.7 1.7-1.7h3.2c.9 0 1.7.8 1.7 1.7v3.2c0 .9-.7 1.7-1.7 1.7"/><path class="st4" fill="#28488D" d="M39.7 18.3c-5.1 0-9.2 4.1-9.2 9.1 0 5.1 4.1 9.2 9.2 9.2 2.5 0 4.7-1 6.4-2.6.3-.3.5-.7.5-1.1 0-.8-.7-1.5-1.5-1.5-.5 0-.9.3-1.2.6-1 1.1-2.6 1.6-4.2 1.6-3.1 0-5.5-2.1-6.1-5h14c.7-.2 1.2-.8 1.2-1.6 0-4.7-4.2-8.7-9.1-8.7m-5.9 7.3c.8-2.5 3.1-4.2 5.9-4.2 2.8 0 5 1.8 5.8 4.2H33.8zm42.9-7.1c-.8 0-1.5.7-1.5 1.5v.7c-1.6-1.5-3.8-2.3-6.1-2.3-5.1 0-9.2 4.1-9.2 9.1 0 5.1 4.1 9.2 9.2 9.2 2.3 0 4.5-.9 6.1-2.3v.6c0 .8.7 1.5 1.5 1.5.7 0 1.5-.7 1.5-1.5V19.9c0-.8-.8-1.4-1.5-1.4M69 33.6c-3.4 0-6.1-2.7-6.1-6.1 0-3.4 2.7-6.1 6.1-6.1 3.4 0 6.1 2.7 6.1 6.1.1 3.4-2.6 6.1-6.1 6.1m41.2-15.1c-.8 0-1.5.7-1.5 1.5v.7c-1.6-1.5-3.8-2.3-6.1-2.3-5.1 0-9.2 4.1-9.2 9.1 0 5.1 4.1 9.2 9.2 9.2 2.3 0 4.5-.9 6.1-2.3v.6c0 .8.7 1.5 1.5 1.5.7 0 1.5-.7 1.5-1.5V19.9c0-.8-.7-1.4-1.5-1.4m-7.6 15.1c-3.4 0-6.1-2.7-6.1-6.1 0-3.4 2.7-6.1 6.1-6.1 3.4 0 6.1 2.7 6.1 6.1 0 3.4-2.7 6.1-6.1 6.1M58.8 18.3c-1.7 0-3.3.6-4.6 1.5 0-.7-.8-1.4-1.5-1.4-.8 0-1.5.7-1.5 1.5V35c0 .8.7 1.5 1.5 1.5.7 0 1.5-.7 1.5-1.5v-9.2c0-3.6 2.2-4.4 4.6-4.5.9 0 1.7-.7 1.7-1.6 0-.6-.7-1.4-1.7-1.4"/><path class="st5" fill="#28488D" d="M25.9 27.1c-1.1-.6-2.3-1.2-3.4-1.8-.5-.3-.9-.6-1.3-.9-.9-.9-.7-2.2.3-2.7.3-.2.7-.3 1-.3 1-.1 2 .1 2.9.7.5.3 1 .5 1.5.6.5.1 1-.1 1.3-.6.3-.4.3-.9.1-1.4-.2-.4-.5-.7-.8-.9-1.3-1-2.7-1.4-4.3-1.4-1.2 0-2.3.3-3.3.8-2.2 1.2-3 3.6-2.1 5.9.5 1.1 1.3 1.9 2.3 2.5.9.5 1.9 1 2.8 1.4.8.4 1.5.8 2.2 1.5.8.8.9 1.7.4 2.4-.4.6-.9.8-1.6.9-1.3.2-2.4-.1-3.5-.8-.4-.2-.7-.5-1.2-.6-1.2-.4-2.2.4-2 1.6.1.5.4.9.8 1.2 2 1.7 5.6 2.2 8.1 1 2.6-1.3 3.5-4.1 2.2-6.6-.5-1.3-1.4-2-2.4-2.5m63.1 0c-1.1-.6-2.3-1.2-3.4-1.8-.5-.3-.9-.6-1.3-.9-.9-.9-.7-2.2.3-2.7.3-.2.7-.3 1-.3 1-.1 2 .1 2.9.7.5.3 1 .5 1.5.6.5.1 1-.1 1.3-.6.3-.4.3-.9.1-1.4-.2-.4-.5-.7-.8-.9-1.3-1-2.7-1.4-4.3-1.4-1.2 0-2.3.3-3.3.8-2.2 1.2-3 3.6-2.1 5.9.5 1.1 1.3 1.9 2.3 2.5.9.5 1.9 1 2.8 1.4.8.4 1.5.8 2.2 1.5.8.8.9 1.7.4 2.4-.4.6-.9.8-1.6.9-1.3.2-2.4-.1-3.5-.8-.4-.2-.7-.5-1.2-.6-1.2-.4-2.2.4-2 1.6.1.5.4.9.8 1.2 2 1.7 5.6 2.2 8.1 1 2.6-1.3 3.5-4.1 2.2-6.6-.5-1.3-1.4-2-2.4-2.5m96.9 0c-1.1-.6-2.3-1.2-3.4-1.8-.5-.3-.9-.6-1.3-.9-.9-.9-.7-2.1.3-2.7.3-.2.7-.3 1-.3 1-.1 2 .1 2.9.7.5.3 1 .4 1.5.6.5.1 1-.1 1.3-.6.3-.4.3-.9.1-1.4-.2-.3-.5-.7-.8-.9-1.3-.9-2.7-1.3-4.3-1.4-1.1 0-2.2.3-3.3.8-2.2 1.2-3 3.6-2.1 5.9.5 1.1 1.3 1.9 2.3 2.5.9.5 1.9 1 2.8 1.4.8.4 1.5.8 2.1 1.5.8.8.9 1.7.4 2.4-.4.6-.9.8-1.6.9-1.2.2-2.4-.1-3.4-.8-.4-.2-.7-.5-1.1-.6-1.2-.4-2.2.4-2 1.6.1.5.4.9.8 1.2 2 1.7 5.6 2.2 8 1 2.6-1.3 3.5-4.1 2.2-6.6-.6-1.2-1.4-1.9-2.4-2.5"/><path class="st4" fill="#28488D" d="M134.6 30.6c.3-.6.8-1.1 1.5-1.1.8 0 1.5.7 1.5 1.5 0 .2 0 .4-.1.5-1.4 3.1-4.5 5-8.1 5-5.1 0-9.2-4.1-9.2-9.2 0-5 4.1-9.1 9.2-9.1 3 0 5.5 1.6 7.3 3.7.2.3.5.7.5 1.1 0 .8-.7 1.5-1.5 1.5-.5 0-1-.3-1.3-.8-1-1.6-2.9-2.5-5-2.5-3.4 0-6.1 2.7-6.1 6.1 0 3.4 2.7 6.1 6.1 6.1 2.2.2 4.4-1 5.2-2.8m13.5-12.3c5 0 9.1 4.1 9.1 9.1 0 5.1-4.1 9.2-9.1 9.2-5.1 0-9.2-4.1-9.2-9.2.1-5 4.1-9.1 9.2-9.1m0 15.3c3.4 0 6.1-2.7 6.1-6.1 0-3.4-2.7-6.1-6.1-6.1-3.4 0-6.1 2.7-6.1 6.1 0 3.4 2.7 6.1 6.1 6.1m24-7.6c0-2.5-2.2-4.7-4.7-4.7-2.4 0-4.7 1-4.7 4.5V35c0 .8-.7 1.5-1.5 1.5s-1.5-.7-1.5-1.5V19.9c0-.8.7-1.5 1.5-1.5.7 0 1.5.6 1.5 1.4 1.3-1 2.9-1.5 4.7-1.5 4.1 0 7.8 3.2 7.8 7.3V35c0 .8-.7 1.5-1.5 1.5s-1.5-.7-1.5-1.5v-9zm22 2.9c0 2.5 2.2 4.7 4.7 4.7 2.4 0 4.7-1 4.7-4.5V20c0-.8.7-1.5 1.5-1.5s1.5.7 1.5 1.5v15c0 .8-.7 1.5-1.5 1.5-.7 0-1.5-.6-1.5-1.4-1.3 1-2.9 1.6-4.7 1.6-4.1 0-7.8-3.3-7.8-7.3V20c0-.8.7-1.5 1.5-1.5s1.5.7 1.5 1.5v8.9zm28.1-2.9c0-2.5-2.2-4.7-4.7-4.7-2.4 0-4.7.9-4.7 4.5V35c0 .8-.7 1.5-1.5 1.5s-1.5-.7-1.5-1.5V19.9c0-.8.7-1.5 1.5-1.5.7 0 1.5.6 1.5 1.4 1.3-1 2.9-1.5 4.7-1.5 2.5 0 4.8 1.1 6.2 3 1.4-1.8 3.7-3 6.2-3 4.1 0 7.8 3.2 7.8 7.3V35c0 .8-.7 1.5-1.5 1.5s-1.5-.7-1.5-1.5v-9c0-2.5-2.2-4.7-4.7-4.7-2.4 0-4.8 2-4.8 4.4V35c0 .9-.7 1.5-1.4 1.5-.8 0-1.5-.7-1.5-1.5v-9zm39.4 8.3c-1.6 1.5-3.8 2.3-6.1 2.3-5.1 0-9.2-4.1-9.2-9.2 0-5 4.1-9.1 9.2-9.1 2.3 0 4.5.9 6.1 2.3v-7.8c0-.8.7-1.5 1.5-1.5.7 0 1.5.7 1.5 1.5V35c0 .8-.7 1.5-1.5 1.5s-1.5-.7-1.5-1.5v-.7zm-6.1-.7c3.4 0 6.1-2.7 6.1-6.1 0-3.4-2.7-6.1-6.1-6.1-3.4 0-6.1 2.7-6.1 6.1-.1 3.4 2.6 6.1 6.1 6.1m20.4-15.3c5 0 9.1 4.1 9.1 9.1 0 5.1-4.1 9.2-9.1 9.2-5.1 0-9.2-4.1-9.2-9.2 0-5 4.1-9.1 9.2-9.1m0 15.3c3.4 0 6.1-2.7 6.1-6.1 0-3.4-2.7-6.1-6.1-6.1-3.4 0-6.1 2.7-6.1 6.1 0 3.4 2.7 6.1 6.1 6.1m14.5-7.8V35c0 .8-.7 1.5-1.5 1.5s-1.5-.7-1.5-1.5V19.9c0-.8.7-1.5 1.5-1.5.7 0 1.5.6 1.5 1.4 1.2-1 2.8-1.5 4.6-1.5 1 0 1.7.7 1.7 1.5s-.7 1.6-1.7 1.6c-2.4 0-4.6.9-4.6 4.4m-48.2-9.6c1 0 1.8-.8 1.8-1.8s-.8-1.8-1.8-1.8-1.8.8-1.8 1.8.8 1.8 1.8 1.8m0 2.3c-.8 0-1.5.7-1.5 1.5v15c0 .8.7 1.5 1.5 1.5.7 0 1.5-.7 1.5-1.5V19.9c0-.8-.7-1.4-1.5-1.4m53.4 18c-.1 0-.3-.1-.3-.2v-2.6h-.6c-.1 0-.2-.1-.2-.3 0-.1.1-.3.2-.3h1.7c.1 0 .2.1.2.3 0 .1-.1.3-.2.3h-.6v2.6c0 .1-.1.2-.2.2m2.9 0c-.1 0-.2-.1-.2-.2l-.7-2.1v2c0 .1-.1.2-.3.2-.1 0-.3-.1-.3-.2v-2.7c0-.2.2-.4.4-.4s.3.1.4.3l.7 2.1.7-2.1c.1-.2.2-.3.4-.3s.4.2.4.4v2.7c0 .1-.1.2-.3.2-.1 0-.3-.1-.3-.2v-2c-.1.3-.3.8-.4 1.2-.3.8-.3.8-.3.9 0 .1 0 .2-.2.2"/></svg>